<svg width="435" height="481" viewBox="0 0 435 481" fill="none" xmlns="http://www.w3.org/2000/svg">
<path fill-rule="evenodd" clip-rule="evenodd" d="M49.4338 468.667H315.042V469.9H49.4338V468.667Z" fill="#3FB1B5"/>
<path fill-rule="evenodd" clip-rule="evenodd" d="M296.443 481H4.08282V480.046H296.443V481Z" fill="#66B0F0"/>
<path d="M295.153 4.9209V52.7702C295.153 62.1411 287.508 69.7535 278.097 69.7535H224.816C234.227 69.7535 241.872 62.1643 241.872 52.7702V4.9209H295.153Z" fill="white"/>
<path fill-rule="evenodd" clip-rule="evenodd" d="M241.291 4.34277H295.733V52.7706C295.733 62.4609 287.829 70.3323 278.097 70.3323H224.816V69.1754C233.907 69.1754 241.291 61.8446 241.291 52.7706V4.34277ZM231.126 69.1754H278.097C287.187 69.1754 294.572 61.822 294.572 52.7706V5.49967H242.453V52.7706C242.453 60.2659 237.746 66.6501 231.126 69.1754Z" fill="#66B0F0"/>
<path d="M270.545 0.293945H266.246V10.4978H270.545V0.293945Z" fill="#FFCF2D"/>
<path d="M279.654 23.1086C279.05 23.1086 278.446 22.8773 277.958 22.4376L276.169 20.8643C275.611 20.3784 274.868 20.3784 274.31 20.8643L272.614 22.3682C271.615 23.2475 270.221 23.2475 269.198 22.3682L267.641 21.0031C267.084 20.5172 266.34 20.5172 265.782 21.0031L264.342 22.2757C263.343 23.1549 261.948 23.1549 260.926 22.2757L259.741 21.2345C259.183 20.7486 258.44 20.7486 257.882 21.2345L256.604 22.3682C255.605 23.2475 254.211 23.2475 253.188 22.3682L252.003 21.327C251.446 20.8411 250.702 20.8411 250.144 21.327C249.912 21.5353 249.54 21.5121 249.331 21.2807C249.122 21.0494 249.145 20.6791 249.378 20.4709C250.377 19.5917 251.771 19.5917 252.793 20.4709L253.978 21.5121C254.536 21.998 255.28 21.998 255.837 21.5121L257.115 20.3784C258.114 19.4991 259.509 19.4991 260.531 20.3784L261.716 21.4196C262.274 21.9055 263.017 21.9055 263.575 21.4196L265.016 20.147C266.015 19.2677 267.409 19.2677 268.431 20.147L269.988 21.5121C270.546 21.998 271.289 21.998 271.847 21.5121L273.543 20.0081C274.542 19.1289 275.937 19.1289 276.959 20.0081L278.748 21.5815C279.306 22.0674 280.049 22.0674 280.607 21.5815L282.466 19.9387C283.465 19.0595 284.859 19.0595 285.882 19.9387C286.114 20.147 286.137 20.5172 285.928 20.7486C285.719 20.9799 285.347 21.0031 285.115 20.7948C284.557 20.3089 283.814 20.3089 283.256 20.7948L281.397 22.4376C280.839 22.8773 280.259 23.1086 279.654 23.1086Z" fill="#66B0F0"/>
<path d="M279.654 32.6174C279.05 32.6174 278.446 32.386 277.958 31.9464L276.169 30.373C275.611 29.8871 274.868 29.8871 274.31 30.373L272.614 31.877C271.615 32.7562 270.221 32.7562 269.198 31.877L267.641 30.5119C267.084 30.026 266.34 30.026 265.782 30.5119L264.342 31.7844C263.343 32.6637 261.948 32.6637 260.926 31.7844L259.741 30.7432C259.183 30.2573 258.44 30.2573 257.882 30.7432L256.604 31.877C255.605 32.7562 254.211 32.7562 253.188 31.877L252.003 30.8358C251.446 30.3499 250.702 30.3499 250.144 30.8358C249.912 31.044 249.54 31.0209 249.331 30.7895C249.122 30.5581 249.145 30.1879 249.378 29.9797C250.377 29.1004 251.771 29.1004 252.793 29.9797L253.978 31.0209C254.536 31.5068 255.28 31.5068 255.837 31.0209L257.115 29.8871C258.115 29.0079 259.509 29.0079 260.531 29.8871L261.716 30.9283C262.274 31.4142 263.017 31.4142 263.575 30.9283L265.016 29.6558C266.015 28.7765 267.409 28.7765 268.431 29.6558L269.988 31.0209C270.546 31.5068 271.289 31.5068 271.847 31.0209L273.543 29.5169C274.543 28.6377 275.937 28.6377 276.959 29.5169L278.748 31.0903C279.306 31.5762 280.05 31.5762 280.607 31.0903L282.466 29.4475C283.465 28.5683 284.859 28.5683 285.882 29.4475C286.114 29.6558 286.137 30.026 285.928 30.2573C285.719 30.4887 285.347 30.5119 285.115 30.3036C284.557 29.8177 283.814 29.8177 283.256 30.3036L281.397 31.9464C280.84 32.4091 280.259 32.6174 279.654 32.6174Z" fill="#66B0F0"/>
<path d="M279.654 42.1272C279.05 42.1272 278.446 41.8958 277.958 41.4562L276.169 39.8828C275.611 39.3969 274.868 39.3969 274.31 39.8828L272.614 41.3868C271.615 42.266 270.221 42.266 269.198 41.3868L267.641 40.0216C267.084 39.5357 266.34 39.5357 265.782 40.0216L264.342 41.2942C263.343 42.1734 261.948 42.1734 260.926 41.2942L259.741 40.253C259.183 39.7671 258.44 39.7671 257.882 40.253L256.604 41.3868C255.605 42.266 254.211 42.266 253.188 41.3868L252.003 40.3456C251.446 39.8597 250.702 39.8597 250.144 40.3456C249.912 40.5538 249.54 40.5307 249.331 40.2993C249.122 40.0679 249.145 39.6977 249.378 39.4895C250.377 38.6102 251.771 38.6102 252.793 39.4895L253.978 40.5307C254.536 41.0166 255.28 41.0166 255.837 40.5307L257.115 39.3969C258.115 38.5177 259.509 38.5177 260.531 39.3969L261.716 40.4381C262.274 40.924 263.017 40.924 263.575 40.4381L265.016 39.1655C266.015 38.2863 267.409 38.2863 268.431 39.1655L269.988 40.5307C270.546 41.0166 271.289 41.0166 271.847 40.5307L273.543 39.0267C274.543 38.1475 275.937 38.1475 276.959 39.0267L278.748 40.6001C279.306 41.086 280.05 41.086 280.607 40.6001L282.466 38.9573C283.465 38.078 284.859 38.078 285.882 38.9573C286.114 39.1655 286.137 39.5357 285.928 39.7671C285.719 39.9985 285.347 40.0216 285.115 39.8134C284.557 39.3275 283.814 39.3275 283.256 39.8134L281.397 41.4562C280.84 41.9189 280.259 42.1272 279.654 42.1272Z" fill="#66B0F0"/>
<path d="M279.654 51.6594C279.05 51.6594 278.446 51.428 277.958 50.9884L276.169 49.415C275.611 48.9291 274.868 48.9291 274.31 49.415L272.614 50.919C271.615 51.7982 270.221 51.7982 269.198 50.919L267.641 49.5539C267.084 49.068 266.34 49.068 265.782 49.5539L264.342 50.8264C263.343 51.7057 261.948 51.7057 260.926 50.8264L259.741 49.7852C259.183 49.2993 258.44 49.2993 257.882 49.7852L256.604 50.919C255.605 51.7982 254.211 51.7982 253.188 50.919L252.003 49.8778C251.446 49.3919 250.702 49.3919 250.144 49.8778C249.912 50.086 249.54 50.0629 249.331 49.8315C249.122 49.6001 249.145 49.2299 249.378 49.0217C250.377 48.1425 251.771 48.1425 252.793 49.0217L253.978 50.0629C254.536 50.5488 255.28 50.5488 255.837 50.0629L257.115 48.9291C258.115 48.0499 259.509 48.0499 260.531 48.9291L261.716 49.9703C262.274 50.4562 263.017 50.4562 263.575 49.9703L265.016 48.6978C266.015 47.8185 267.409 47.8185 268.431 48.6978L269.988 50.0629C270.546 50.5488 271.289 50.5488 271.847 50.0629L273.543 48.5589C274.543 47.6797 275.937 47.6797 276.959 48.5589L278.748 50.1323C279.306 50.6182 280.05 50.6182 280.607 50.1323L282.466 48.4895C283.465 47.6103 284.859 47.6103 285.882 48.4895C286.114 48.6978 286.137 49.068 285.928 49.2993C285.719 49.5307 285.347 49.5539 285.115 49.3456C284.557 48.8597 283.814 48.8597 283.256 49.3456L281.397 50.9884C280.84 51.428 280.259 51.6594 279.654 51.6594Z" fill="#66B0F0"/>
<path d="M350.011 4.91992H312.741V42.0333H350.011V4.91992Z" fill="#FFCF2D"/>
<path d="M320.931 3.33727L318.233 0.00488281L308.392 7.94256L311.09 11.2749L320.931 3.33727Z" fill="#FE5244"/>
<path d="M351.945 11.2562L354.647 7.92676L344.797 -2.5395e-05L342.095 3.32937L351.945 11.2562Z" fill="#FE5244"/>
<path d="M342.135 13.7139H319.526V15.1022H342.135V13.7139Z" fill="white"/>
<path d="M342.135 19.7061H319.526V21.0943H342.135V19.7061Z" fill="white"/>
<path d="M342.135 25.7217H319.526V27.1099H342.135V25.7217Z" fill="white"/>
<path d="M342.135 31.7148H319.526V33.1031H342.135V31.7148Z" fill="white"/>
<path d="M378.457 404.178C377.917 404.019 377.618 403.939 377.618 403.939L371.085 425.243L346.494 418.818C346.294 418.639 346.195 418.54 346.195 418.54C346.195 418.54 246.612 340.822 241.378 303.524C236.164 266.227 277.875 230.839 277.875 230.839C277.875 230.839 366.83 398.27 377.837 403.74C378.057 403.86 378.277 403.999 378.457 404.178Z" fill="#E57281"/>
<path d="M298.931 270.006C295.814 286.616 284.867 320.253 273.541 352.797C256.76 334.794 243.216 316.633 241.378 303.504C238.062 279.872 253.624 256.977 265.45 243.41C269.785 239.949 274.459 236.766 279.514 233.922C282.61 239.71 289.781 253.118 298.931 270.006Z" fill="#9A3B82"/>
<path d="M434.351 418.52L397.774 441.893L387.166 440.302L377.398 446.468L380.554 452.913L364.473 463.197C343.158 443.882 346.174 418.759 346.174 418.759L371.065 425.263L377.598 403.959C377.598 403.959 399.951 410.464 416.452 409.907C432.993 409.35 434.351 418.52 434.351 418.52Z" fill="white"/>
<path fill-rule="evenodd" clip-rule="evenodd" d="M377.197 403.222L377.766 403.387L377.597 403.96C377.766 403.387 377.765 403.387 377.766 403.387L377.781 403.391L377.828 403.405C377.87 403.417 377.933 403.435 378.016 403.459C378.183 403.506 378.429 403.575 378.75 403.663C379.39 403.839 380.324 404.09 381.497 404.389C383.843 404.989 387.143 405.782 390.957 406.558C398.595 408.112 408.253 409.587 416.431 409.311C424.816 409.029 429.46 411.212 432.011 413.568C433.281 414.741 434.012 415.938 434.426 416.851C434.633 417.307 434.761 417.693 434.838 417.969C434.876 418.107 434.902 418.217 434.918 418.297C434.926 418.336 434.932 418.368 434.936 418.391C434.939 418.402 434.94 418.412 434.941 418.419L434.943 418.428L434.943 418.431L434.943 418.433C434.944 418.433 434.944 418.434 434.351 418.521L434.944 418.434L435 418.815L397.908 442.517L387.298 440.926L378.171 446.687L381.326 453.129L364.41 463.948L364.07 463.64C353.3 453.881 348.675 442.65 346.745 433.863C345.78 429.471 345.488 425.687 345.437 422.998C345.411 421.653 345.446 420.582 345.488 419.843C345.509 419.474 345.531 419.188 345.549 418.993C345.557 418.896 345.565 418.821 345.57 418.77C345.573 418.744 345.575 418.725 345.577 418.711L345.579 418.695L345.579 418.691L345.579 418.689C345.579 418.689 345.579 418.689 346.174 418.759L345.579 418.689L345.661 418.008L370.66 424.541L377.197 403.222ZM346.71 419.516C346.701 419.633 346.693 419.765 346.685 419.91C346.645 420.621 346.61 421.663 346.635 422.976C346.685 425.601 346.971 429.305 347.916 433.608C349.786 442.119 354.234 452.964 364.538 462.448L379.782 452.699L376.624 446.251L387.034 439.679L397.64 441.27L433.671 418.246C433.607 418.025 433.502 417.713 433.334 417.342C432.976 416.553 432.334 415.493 431.196 414.443C428.933 412.353 424.628 410.229 416.472 410.504C408.15 410.785 398.381 409.286 390.717 407.727C386.88 406.947 383.56 406.149 381.199 405.546C380.019 405.244 379.077 404.991 378.431 404.814C378.268 404.769 378.124 404.729 377.999 404.694L371.47 425.987L346.71 419.516Z" fill="#FE5244"/>
<path fill-rule="evenodd" clip-rule="evenodd" d="M393.299 406.022C393.249 405.579 393.174 404.954 393.073 404.21C392.867 402.699 392.552 400.689 392.114 398.706C391.678 396.735 391.112 394.747 390.392 393.304C390.034 392.586 389.613 391.953 389.111 391.531C388.59 391.093 387.949 390.861 387.233 391.049L387.232 391.05L387.23 391.05C386.515 391.242 386.052 391.779 385.778 392.426C385.507 393.063 385.392 393.858 385.381 394.713C385.359 396.429 385.754 398.556 386.401 400.568C387.047 402.579 387.964 404.536 389.026 405.893C389.556 406.57 390.149 407.133 390.796 407.462C391.461 407.801 392.195 407.894 392.927 407.595C394.164 407.09 395.328 405.933 396.36 404.588C397.404 403.225 398.37 401.592 399.191 400.032C400.013 398.468 400.697 396.963 401.176 395.85C401.415 395.293 401.603 394.833 401.732 394.512C401.796 394.351 401.845 394.225 401.879 394.139C401.896 394.096 401.908 394.063 401.917 394.04L401.927 394.014L401.93 394.005L401.93 394.005C401.93 394.005 401.931 394.005 401.37 393.795C400.809 393.584 400.809 393.584 400.809 393.584L400.809 393.585L400.808 393.586L400.806 393.592L400.797 393.615C400.789 393.636 400.777 393.667 400.761 393.709C400.729 393.791 400.681 393.914 400.618 394.07C400.493 394.384 400.308 394.834 400.074 395.381C399.603 396.475 398.933 397.95 398.129 399.478C397.325 401.008 396.394 402.576 395.407 403.864C394.697 404.79 393.985 405.533 393.299 406.022ZM392.154 406.574C391.899 406.603 391.632 406.547 391.341 406.399C390.91 406.18 390.444 405.764 389.971 405.159C389.028 403.953 388.165 402.14 387.542 400.204C386.921 398.271 386.559 396.276 386.579 394.728C386.59 393.951 386.696 393.328 386.882 392.891C387.063 392.463 387.292 392.27 387.541 392.203C387.788 392.138 388.038 392.19 388.338 392.443C388.658 392.712 388.991 393.178 389.319 393.835C389.971 395.143 390.513 397.014 390.943 398.963C391.372 400.902 391.682 402.877 391.885 404.37C391.987 405.116 392.061 405.74 392.111 406.177C392.128 406.334 392.143 406.468 392.154 406.574Z" fill="#FE5244"/>
<path fill-rule="evenodd" clip-rule="evenodd" d="M433.149 415.843L398.339 437.485L386.786 435.634L374.662 442.85L349.98 442.47L349.999 441.276L374.339 441.652L386.546 434.387L398.086 436.236L432.515 414.831L433.149 415.843Z" fill="#FE5244"/>
<path fill-rule="evenodd" clip-rule="evenodd" d="M384.842 416.327L387.12 405.765L388.292 406.015L386.014 416.578L384.842 416.327Z" fill="#FE5244"/>
<path fill-rule="evenodd" clip-rule="evenodd" d="M389.797 417.521L392.074 406.958L393.246 407.209L390.968 417.771L389.797 417.521Z" fill="#FE5244"/>
<path fill-rule="evenodd" clip-rule="evenodd" d="M394.971 418.376L397.248 407.813L398.42 408.064L396.143 418.627L394.971 418.376Z" fill="#FE5244"/>
<path d="M269.426 222.704C269.426 222.704 284.068 229.507 284.068 254.452C284.068 278.561 228.174 426.199 228.174 426.199L210.974 440.721L193.515 421.684C202.045 413.608 177.554 267.6 269.426 222.704Z" fill="#E57281"/>
<path d="M267.868 469.007L224.399 469.047L216.328 462.005L204.762 461.945L203.923 469.067L186.883 469.087C177.614 440.363 193.595 421.664 193.595 421.664L210.935 440.681L228.254 426.18C228.254 426.18 243.277 443.724 257.46 452.119C271.683 460.533 267.868 469.007 267.868 469.007Z" fill="white"/>
<path fill-rule="evenodd" clip-rule="evenodd" d="M193.58 420.761L210.991 439.855L228.324 425.342L228.71 425.793L228.254 426.18C228.71 425.793 228.71 425.793 228.71 425.793L228.721 425.805L228.752 425.842C228.781 425.875 228.823 425.924 228.88 425.988C228.992 426.118 229.159 426.309 229.377 426.556C229.814 427.05 230.453 427.765 231.266 428.65C232.89 430.42 235.204 432.868 237.959 435.577C243.478 441.003 250.738 447.447 257.766 451.606C264.977 455.872 267.704 460.209 268.578 463.569C269.012 465.241 268.98 466.645 268.835 467.638C268.762 468.134 268.661 468.528 268.577 468.802C268.534 468.939 268.496 469.047 268.467 469.122C268.46 469.142 268.453 469.159 268.447 469.174C268.441 469.189 268.436 469.201 268.432 469.211C268.427 469.222 268.424 469.231 268.421 469.238L268.417 469.246L268.415 469.25C268.415 469.251 268.415 469.252 267.868 469.007L268.415 469.252L268.256 469.604L224.174 469.644L216.102 462.601L205.295 462.545L204.456 469.663L186.446 469.684L186.312 469.269C181.632 454.767 183.324 442.778 186.196 434.411C187.631 430.231 189.359 426.956 190.732 424.723C191.418 423.607 192.016 422.75 192.444 422.171C192.658 421.881 192.829 421.66 192.948 421.51C193.008 421.436 193.055 421.379 193.087 421.34C193.103 421.32 193.115 421.305 193.124 421.295L193.134 421.283L193.137 421.279L193.138 421.278C193.138 421.278 193.139 421.278 193.595 421.664L193.139 421.278L193.58 420.761ZM193.627 422.587C193.561 422.674 193.488 422.77 193.409 422.877C193 423.433 192.421 424.261 191.754 425.346C190.419 427.517 188.732 430.713 187.33 434.797C184.556 442.881 182.897 454.455 187.321 468.49L203.39 468.471L204.229 461.346L216.555 461.41L224.624 468.45L267.443 468.411C267.51 468.19 267.589 467.87 267.649 467.466C267.774 466.607 267.807 465.366 267.417 463.868C266.643 460.887 264.166 456.781 257.154 452.632C249.999 448.397 242.656 441.871 237.117 436.426C234.344 433.7 232.016 431.237 230.381 429.455C229.563 428.564 228.918 427.843 228.478 427.344C228.368 427.221 228.272 427.111 228.188 427.015L210.879 441.508L193.627 422.587Z" fill="#FE5244"/>
<path fill-rule="evenodd" clip-rule="evenodd" d="M248.27 420.056C249.16 419.934 250.018 420.153 250.761 420.796C251.5 421.434 251.839 422.23 251.837 423.104C251.835 423.949 251.515 424.825 251.031 425.679C250.064 427.385 248.326 429.202 246.486 430.844C244.635 432.495 242.636 434.01 241.103 435.11C240.395 435.618 239.785 436.039 239.332 436.345C239.531 436.364 239.772 436.373 240.061 436.368C240.78 436.357 241.688 436.265 242.725 436.111C244.797 435.802 247.325 435.255 249.785 434.658C252.242 434.062 254.617 433.421 256.38 432.928C257.26 432.682 257.987 432.473 258.494 432.326C258.747 432.252 258.945 432.194 259.08 432.154C259.147 432.134 259.199 432.119 259.233 432.108L259.285 432.093C259.285 432.093 259.285 432.093 259.458 432.664C259.63 433.236 259.63 433.236 259.63 433.236L259.576 433.252C259.557 433.258 259.532 433.265 259.502 433.274C259.478 433.281 259.451 433.289 259.421 433.298C259.285 433.338 259.085 433.397 258.83 433.471C258.32 433.62 257.589 433.83 256.704 434.077C254.933 434.572 252.543 435.218 250.068 435.818C247.596 436.417 245.027 436.975 242.902 437.291C241.841 437.449 240.875 437.549 240.079 437.562C239.32 437.573 238.598 437.51 238.114 437.246C237.455 436.885 237.333 436.103 237.356 435.447C237.381 434.736 237.584 433.859 237.9 432.913C238.537 431.01 239.685 428.683 241.065 426.543C242.44 424.411 244.08 422.412 245.722 421.209C246.543 420.607 247.407 420.174 248.27 420.056ZM238.557 435.427C239.009 435.122 239.649 434.682 240.402 434.142C241.917 433.055 243.879 431.568 245.686 429.955C247.504 428.332 249.121 426.622 249.987 425.092C250.42 424.328 250.637 423.659 250.638 423.101C250.64 422.573 250.451 422.108 249.976 421.697C249.505 421.29 248.997 421.161 248.433 421.238C247.844 421.319 247.168 421.631 246.433 422.17C244.961 423.248 243.415 425.108 242.073 427.188C240.736 429.261 239.637 431.499 239.037 433.29C238.747 434.156 238.586 434.886 238.557 435.427Z" fill="#FE5244"/>
<path fill-rule="evenodd" clip-rule="evenodd" d="M184.265 444.189L184.905 443.18L205.154 455.898H219.363L228.332 463.397H268.207V464.591H227.896L218.926 457.092H204.808L184.265 444.189Z" fill="#FE5244"/>
<path fill-rule="evenodd" clip-rule="evenodd" d="M226.273 439.483L233.944 431.845L234.791 432.689L227.12 440.327L226.273 439.483Z" fill="#FE5244"/>
<path fill-rule="evenodd" clip-rule="evenodd" d="M229.788 443.163L237.458 435.524L238.306 436.368L230.635 444.007L229.788 443.163Z" fill="#FE5244"/>
<path fill-rule="evenodd" clip-rule="evenodd" d="M233.664 446.664L241.335 439.025L242.182 439.869L234.511 447.508L233.664 446.664Z" fill="#FE5244"/>
<path d="M269.425 222.703C234.885 239.572 216.787 270.762 207.218 303.524H102.401C75.5726 303.524 55.5761 278.878 61.2295 252.76L68.9205 217.193H251.166C257.918 217.193 264.191 219.222 269.425 222.703Z" fill="#FE5244"/>
<path d="M191.595 256.798L229.331 256.719L223.738 265.849L191.595 256.798Z" fill="#E57281"/>
<path fill-rule="evenodd" clip-rule="evenodd" d="M108.676 216.609C109 216.677 109.208 216.993 109.14 217.315L107.682 224.277C107.682 224.277 107.682 224.277 107.682 224.277C104.243 240.716 116.825 256.142 133.684 256.142H229.004C239.061 242.273 252.185 230.361 269.36 221.969C269.657 221.824 270.016 221.946 270.162 222.242C270.308 222.538 270.185 222.895 269.888 223.04C252.806 231.387 239.775 243.254 229.798 257.087L229.619 257.336H133.684C116.063 257.336 102.915 241.213 106.508 224.034L107.967 217.072C108.034 216.749 108.352 216.542 108.676 216.609Z" fill="white"/>
<path fill-rule="evenodd" clip-rule="evenodd" d="M191.021 256.614C191.112 256.297 191.444 256.114 191.762 256.205L224.252 265.489L223.855 266.154C216.875 277.857 211.739 290.639 207.934 303.671C207.841 303.988 207.509 304.17 207.191 304.078C206.873 303.986 206.691 303.655 206.783 303.338C210.537 290.478 215.588 277.837 222.43 266.21L191.432 257.352C191.113 257.261 190.93 256.931 191.021 256.614Z" fill="white"/>
<path d="M44.4293 121.653L63.6267 196.646H27.8088C6.95327 196.646 -6.47096 174.586 3.19769 156.186L30.7054 103.81C38.4962 88.9908 53.8981 79.7012 70.6984 79.7012H77.1908C55.1367 79.6813 38.9757 100.369 44.4293 121.653Z" fill="#3FB1B5"/>
<path d="M265.49 102.198C276.776 102.198 286.165 100.706 288.443 98.6176L253.424 174.207C247.091 187.893 233.328 196.645 218.205 196.645C213.771 196.645 209.416 195.89 205.301 194.437C201.185 192.985 197.31 190.857 193.854 188.072L171.78 170.328C171.78 170.328 169.582 183.198 153.901 186.481V217.154H68.9008L44.4296 121.633C38.976 100.348 55.137 79.6406 77.1911 79.6406H136.701C141.955 79.6406 147.129 80.2971 152.123 81.5701C165.787 85.0314 178.053 93.028 186.722 104.486L215.808 142.917L241.937 97.444C241.937 97.4838 241.917 97.5434 241.917 97.5832C241.937 100.229 252.505 102.198 265.49 102.198Z" fill="#3FB1B5"/>
<path fill-rule="evenodd" clip-rule="evenodd" d="M44.0854 121.073C44.4067 120.994 44.7317 121.189 44.8112 121.509L63.6091 197.099C63.6887 197.419 63.4928 197.742 63.1715 197.821C62.8502 197.901 62.5253 197.706 62.4457 197.386L43.6478 121.796C43.5682 121.476 43.7642 121.153 44.0854 121.073Z" fill="white"/>
<path fill-rule="evenodd" clip-rule="evenodd" d="M154.868 153.204C155.11 152.978 155.489 152.99 155.715 153.23L172.416 170.934C172.642 171.174 172.631 171.552 172.389 171.778C172.148 172.003 171.769 171.991 171.542 171.751L154.842 154.047C154.615 153.807 154.627 153.429 154.868 153.204Z" fill="white"/>
<path d="M288.963 97.5032L288.443 98.6172C286.166 100.726 276.777 102.198 265.49 102.198C252.506 102.198 241.938 100.228 241.938 97.6226C241.938 97.5828 241.938 97.5231 241.958 97.4833C242.318 94.9371 252.746 92.749 265.51 92.749C278.255 92.749 288.603 94.9371 288.963 97.5032C288.963 97.4833 288.963 97.4833 288.963 97.5032Z" fill="#FE5244"/>
<path d="M299.429 59.3108C299.429 60.4447 299.149 61.5586 298.63 62.5333C298.11 63.5081 297.351 64.3634 296.413 65.0198L295.953 65.3381L292.377 84.335C291.798 87.4182 289.96 90.1434 287.303 91.8343L282.409 94.9374L278.534 97.404L276.736 101.681C273.4 102.019 269.584 102.218 265.509 102.218C261.394 102.218 257.518 102.019 254.142 101.661V72.2009C254.142 70.9278 254.422 69.6746 254.961 68.5208L261.474 54.5566C261.474 54.5566 268.585 56.3071 265.309 65C262.333 72.8971 269.125 70.8681 272.94 69.4557C276.356 68.1827 291.279 60.6237 297.112 57.8587C298.19 57.3415 299.429 58.1372 299.429 59.3108Z" fill="#E57281"/>
<path fill-rule="evenodd" clip-rule="evenodd" d="M293.289 76.6258C293.56 76.6763 293.738 76.9361 293.688 77.206C293.083 80.4249 291.164 83.2485 288.392 85.013L279.621 90.5831C279.389 90.7307 279.08 90.6628 278.932 90.4312C278.784 90.1996 278.852 89.8922 279.084 89.7445L287.854 84.175C290.395 82.5578 292.152 79.9708 292.706 77.0231C292.757 76.7532 293.017 76.5752 293.289 76.6258Z" fill="#9A3B82"/>
<path fill-rule="evenodd" clip-rule="evenodd" d="M294.727 68.5691C294.998 68.6196 295.176 68.8794 295.126 69.1494C294.521 72.3682 292.602 75.1919 289.83 76.9564L281.06 82.5264C280.827 82.6741 280.518 82.6061 280.37 82.3745C280.222 82.143 280.29 81.8355 280.523 81.6878L289.292 76.1183C289.292 76.1183 289.292 76.1182 289.292 76.1181C289.292 76.1181 289.292 76.1181 289.292 76.1181C291.833 74.501 293.59 71.914 294.144 68.9665C294.195 68.6965 294.455 68.5186 294.727 68.5691Z" fill="#9A3B82"/>
<path fill-rule="evenodd" clip-rule="evenodd" d="M295.735 65.2905C295.883 65.5224 295.814 65.8297 295.581 65.9768L281.477 74.8885C281.244 75.0357 280.936 74.967 280.788 74.7351C280.64 74.5032 280.709 74.1959 280.942 74.0487L295.046 65.137C295.279 64.9899 295.587 65.0586 295.735 65.2905Z" fill="#9A3B82"/>
<path d="M283.169 94.4399L282.39 94.9372L278.514 97.4038L276.717 101.681C273.38 102.019 269.565 102.218 265.49 102.218C261.375 102.218 257.499 102.019 254.123 101.661V93.3856C257.499 92.9878 261.375 92.769 265.49 92.769C272.541 92.7491 278.854 93.4055 283.169 94.4399Z" fill="#9A3B82"/>
<path d="M150.266 81.1132C147.37 84.9922 136.582 94.1226 100.265 94.1226C53.54 94.1226 83.4448 79.7208 83.4448 79.7208L103.262 46.7598L124.517 59.7492V70.1925C124.517 75.4639 128.812 79.7208 134.085 79.7208H135.464C140.418 79.7009 145.532 79.9197 150.266 81.1132Z" fill="#E57281"/>
<path d="M124.498 59.7287V62.3943L83.4258 79.7003L103.243 46.7393L124.498 59.7287Z" fill="#9A3B82"/>
<path d="M125.614 61.0209H130.129C134.284 61.0209 137.66 57.6591 137.66 53.5216V28.4775H110.711V46.1814C110.711 54.3769 117.384 61.0209 125.614 61.0209Z" fill="#E57281"/>
<path fill-rule="evenodd" clip-rule="evenodd" d="M133.457 49.8301L133.456 49.8297L133.456 49.829L133.456 49.8283C133.455 49.828 133.455 49.8281 133.456 49.8284C133.456 49.8284 133.456 49.8284 133.456 49.8284M133.456 49.8284C133.456 49.8285 133.456 49.8286 133.456 49.8288C133.457 49.83 133.459 49.8331 133.461 49.8378C133.467 49.8471 133.478 49.8631 133.493 49.8848C133.522 49.9282 133.57 49.9941 133.637 50.0751C133.771 50.2373 133.979 50.4581 134.27 50.6799C134.847 51.12 135.756 51.5719 137.08 51.5719C137.356 51.5719 137.58 51.7946 137.58 52.0692C137.58 52.3439 137.356 52.5665 137.08 52.5665C135.508 52.5665 134.389 52.0238 133.663 51.4694C133.301 51.1939 133.039 50.9173 132.865 50.7065C132.778 50.601 132.713 50.5115 132.668 50.4461C132.646 50.4134 132.628 50.3867 132.616 50.3669C132.609 50.357 132.604 50.3489 132.601 50.3426L132.596 50.3346L132.594 50.3317L132.593 50.3305L132.593 50.33C132.593 50.3297 132.593 50.3295 133.025 50.08" fill="#73325A"/>
<path d="M134.462 44.0534C134.992 44.0534 135.421 43.2251 135.421 42.2034C135.421 41.1818 134.992 40.3535 134.462 40.3535C133.933 40.3535 133.503 41.1818 133.503 42.2034C133.503 43.2251 133.933 44.0534 134.462 44.0534Z" fill="#73325A"/>
<path d="M115.847 31.0839C115.847 31.0839 138.08 44.4513 145.312 32.8145C151.664 22.6099 123.518 17.3584 113.689 17.3186C103.002 17.2788 88.8383 21.9932 89.078 37.6482C89.2778 50.5383 89.8171 69.3959 82.1462 66.1137C54.8582 54.457 30.6068 66.6309 30.5268 89.825C30.4469 113.019 57.4752 115.187 58.1544 109.2C58.8535 103.232 41.3741 104.605 43.7313 120.101C46.0686 135.597 56.4963 154.971 80.3083 154.971C109.075 154.991 127.393 117.276 109.594 113.437C95.9499 110.493 123.498 136.71 131.668 109.458C140.458 80.1177 108.695 70.5099 107.916 52.7861C107.137 35.0623 115.847 31.0839 115.847 31.0839Z" fill="#FFCF2D"/>
<path fill-rule="evenodd" clip-rule="evenodd" d="M97.0142 21.1809C101.968 17.981 108.287 16.8014 113.691 16.8215C118.659 16.8416 128.208 18.1732 135.733 20.7854C139.486 22.0883 142.807 23.7331 144.79 25.7458C145.787 26.7586 146.471 27.8902 146.673 29.1417C146.877 30.4012 146.582 31.719 145.737 33.0764C143.832 36.141 140.935 37.5497 137.719 37.9471C134.521 38.3423 130.988 37.7428 127.727 36.7904C124.459 35.8362 121.427 34.5163 119.214 33.4376C118.107 32.8977 117.203 32.4171 116.574 32.0709C116.26 31.8978 116.015 31.7582 115.848 31.6616C115.843 31.6591 115.839 31.6567 115.835 31.6544C115.804 31.6722 115.77 31.6922 115.734 31.7145C115.515 31.8471 115.196 32.0589 114.813 32.3688C114.046 32.9883 113.018 34.0009 112.009 35.5584C109.993 38.6685 108.029 43.9885 108.415 52.7646C108.603 57.045 110.662 60.8695 113.589 64.691C115.051 66.6 116.719 68.4952 118.464 70.4389C118.761 70.7698 119.06 71.1021 119.36 71.4361C120.822 73.0598 122.319 74.7227 123.764 76.4476C127.249 80.6082 130.466 85.1707 132.249 90.5623C134.036 95.9657 134.372 102.172 132.147 109.601C130.076 116.507 126.743 120.129 123.041 121.624C121.085 122.414 119.059 122.595 117.115 122.379C117.198 126.426 115.644 131.242 112.842 135.907C106.829 145.917 94.9148 155.479 80.3081 155.469C68.2476 155.469 59.5528 150.555 53.5888 143.672C47.6369 136.803 44.4164 127.991 43.2375 120.175C42.6652 116.412 43.2303 113.421 44.4518 111.138C44.2586 111.068 44.0653 110.994 43.8722 110.918C36.8857 108.164 29.9867 101.662 30.0275 89.8235C30.0681 78.0323 36.2645 69.0179 45.9193 64.4513C55.5588 59.8921 68.5964 59.7847 82.3431 65.6569L82.3434 65.657C83.2226 66.0332 83.9273 66.0696 84.5039 65.8878C85.0845 65.7047 85.6093 65.2772 86.0801 64.5848C87.0356 63.1793 87.6706 60.8273 88.0687 57.8795C88.8145 52.359 88.6972 45.0495 88.5973 38.8233C88.591 38.4297 88.5847 38.0404 88.5788 37.6561C88.4561 29.6475 92.0317 24.3991 97.0142 21.1809ZM45.41 111.465C44.2522 113.549 43.6677 116.362 44.2252 120.026L44.2253 120.027C45.3836 127.707 48.5456 136.33 54.345 143.022C60.1321 149.701 68.5571 154.474 80.3084 154.474H80.3088C94.4682 154.484 106.097 145.198 111.985 135.396C114.771 130.757 116.237 126.058 116.111 122.232C114.751 121.984 113.445 121.554 112.246 121.017C110.653 120.303 109.234 119.394 108.107 118.451C106.987 117.514 106.127 116.519 105.689 115.624C105.47 115.176 105.338 114.716 105.366 114.28C105.395 113.822 105.602 113.417 106 113.134C106.377 112.866 106.885 112.736 107.482 112.71C108.085 112.684 108.822 112.762 109.7 112.951C112.02 113.452 113.786 114.514 115.013 116.01C116.21 117.471 116.867 119.312 117.058 121.371C118.915 121.601 120.833 121.442 122.666 120.702C126 119.356 129.175 116.036 131.189 109.316C133.359 102.075 133.021 96.0775 131.3 90.8734C129.575 85.6577 126.451 81.2091 122.997 77.0847C121.564 75.3745 120.081 73.7272 118.62 72.1036C118.318 71.7687 118.018 71.4348 117.719 71.1016C115.974 69.157 114.283 67.2367 112.795 65.2941C109.822 61.4124 107.618 57.3895 107.417 52.8081C107.024 43.8603 109.025 38.3292 111.169 35.0192C112.24 33.3666 113.341 32.2769 114.183 31.5965C114.604 31.2565 114.96 31.0191 115.214 30.8649C115.342 30.7877 115.444 30.7314 115.516 30.6934C115.552 30.6744 115.58 30.66 115.601 30.6499C115.611 30.6449 115.62 30.6409 115.626 30.6379L115.634 30.6342L115.638 30.6325C115.638 30.6323 115.638 30.6321 115.847 31.0841L115.638 30.6321L115.879 30.5224L116.105 30.6584L116.098 30.6695C116.105 30.6584 116.105 30.6584 116.105 30.6584L116.105 30.6587L116.108 30.6603L116.119 30.667C116.129 30.673 116.145 30.6821 116.165 30.6942C116.206 30.7184 116.268 30.7545 116.349 30.8012C116.511 30.8947 116.75 31.031 117.058 31.2006C117.674 31.54 118.563 32.0128 119.653 32.5443C121.836 33.6083 124.813 34.903 128.008 35.836C131.209 36.7709 134.591 37.3314 137.596 36.9601C140.582 36.591 143.176 35.3068 144.887 32.553L144.888 32.5527C145.631 31.3591 145.846 30.2806 145.687 29.2996C145.527 28.3106 144.978 27.3575 144.076 26.4422C142.261 24.5989 139.122 23.0151 135.404 21.7246C127.987 19.1499 118.548 17.8358 113.687 17.8161M116.037 121.205C115.831 119.408 115.237 117.857 114.239 116.639C113.173 115.339 111.617 114.382 109.488 113.923C108.661 113.745 108.014 113.682 107.525 113.703C107.031 113.725 106.74 113.83 106.58 113.943C106.441 114.042 106.374 114.166 106.363 114.344C106.35 114.544 106.41 114.826 106.587 115.188C106.94 115.91 107.686 116.8 108.749 117.689C109.806 118.573 111.147 119.434 112.656 120.11C113.72 120.587 114.86 120.969 116.037 121.205ZM45.41 111.465C48.3735 112.407 51.275 112.699 53.5923 112.455C54.9487 112.312 56.1357 111.983 57.0213 111.467C57.9095 110.95 58.542 110.211 58.6506 109.257C58.7528 108.383 58.5205 107.618 58.028 107.008C57.5433 106.408 56.8316 105.987 56.0134 105.732C54.3815 105.224 52.2183 105.339 50.1412 106.138C48.2092 106.881 46.3197 108.228 44.9708 110.267C44.7273 110.181 44.4836 110.089 44.2398 109.993C37.5624 107.361 30.9872 101.183 31.0263 89.8269C31.0656 78.4241 37.035 69.7545 46.3478 65.3497C55.676 60.9377 68.408 60.7865 81.9491 66.5709C82.9877 67.0152 83.9441 67.1075 84.8055 66.836C85.6629 66.5656 86.3529 65.9577 86.9072 65.1423C88.0018 63.5323 88.6578 60.9797 89.0587 58.0121C89.8149 52.4139 89.6962 45.0336 89.5964 38.8316C89.5899 38.4295 89.5835 38.0322 89.5775 37.6409C89.4604 29.9944 92.8466 25.0582 97.5577 22.0153C102.297 18.9542 108.404 17.7965 113.687 17.8161M45.9559 110.593C47.1665 108.868 48.8125 107.715 50.5011 107.066C52.4119 106.33 54.3401 106.253 55.7152 106.681C56.4006 106.895 56.9213 107.225 57.2496 107.631C57.5697 108.028 57.7307 108.525 57.6584 109.142L57.6582 109.144C57.5967 109.686 57.2361 110.19 56.5168 110.609C55.7946 111.03 54.7592 111.332 53.4874 111.466C51.3829 111.687 48.7151 111.437 45.9559 110.593Z" fill="white"/>
<path fill-rule="evenodd" clip-rule="evenodd" d="M130.19 42.3234H114.289V41.1299H130.19V42.3234Z" fill="#3FB1B5"/>
<path fill-rule="evenodd" clip-rule="evenodd" d="M135.085 37.1515C133.053 37.1515 131.169 39.32 131.169 42.3235C131.169 45.3269 133.053 47.4954 135.085 47.4954C137.117 47.4954 139 45.3269 139 42.3235C139 39.32 137.117 37.1515 135.085 37.1515ZM129.971 42.3235C129.971 38.955 132.13 35.958 135.085 35.958C138.039 35.958 140.199 38.955 140.199 42.3235C140.199 45.6919 138.039 48.6889 135.085 48.6889C132.13 48.6889 129.971 45.6919 129.971 42.3235Z" fill="#3FB1B5"/>
<path fill-rule="evenodd" clip-rule="evenodd" d="M110.433 13.9172C108.229 13.9172 106.458 15.6972 106.458 17.8757V34.6247H105.259V17.8757C105.259 15.0414 107.563 12.7236 110.433 12.7236H115.427C118.273 12.7236 120.601 15.0181 120.601 17.8757H119.402C119.402 15.6807 117.615 13.9172 115.427 13.9172H110.433Z" fill="#66B0F0"/>
<path d="M110.673 53.0649H101.064C98.6073 53.0649 96.6096 51.0757 96.6096 48.629V39.0609C96.6096 36.6142 98.6073 34.625 101.064 34.625H110.673C113.13 34.625 115.128 36.6142 115.128 39.0609V48.629C115.108 51.0757 113.13 53.0649 110.673 53.0649Z" fill="white"/>
<path fill-rule="evenodd" clip-rule="evenodd" d="M101.064 35.2218C98.9381 35.2218 97.2087 36.9439 97.2087 39.061V48.629C97.2087 50.7462 98.9381 52.4682 101.064 52.4682H110.673C112.794 52.4682 114.51 50.7508 114.528 48.6265V39.061C114.528 36.9439 112.799 35.2218 110.673 35.2218H101.064ZM96.0101 39.061C96.0101 36.2847 98.2761 34.0283 101.064 34.0283H110.673C113.461 34.0283 115.727 36.2847 115.727 39.061V48.6315L115.727 48.6339C115.704 51.402 113.465 53.6617 110.673 53.6617H101.064C98.2761 53.6617 96.0101 51.4053 96.0101 48.629V39.061Z" fill="#66B0F0"/>
<path d="M108.176 49.9022H103.481C101.464 49.9022 99.8057 48.271 99.8057 46.242V41.5674C99.8057 39.5583 101.444 37.9072 103.481 37.9072H108.176C110.193 37.9072 111.852 39.5384 111.852 41.5674V46.242C111.852 48.271 110.213 49.9022 108.176 49.9022Z" fill="white"/>
<path fill-rule="evenodd" clip-rule="evenodd" d="M103.482 38.5041C101.777 38.5041 100.406 39.8858 100.406 41.5674V46.2421C100.406 47.9394 101.793 49.3054 103.482 49.3054H108.176C109.883 49.3054 111.253 47.9415 111.253 46.2421V41.5674C111.253 39.8701 109.865 38.5041 108.176 38.5041H103.482ZM99.207 41.5674C99.207 39.2309 101.111 37.3105 103.482 37.3105H108.176C110.523 37.3105 112.451 39.2068 112.451 41.5674V46.2421C112.451 48.6006 110.545 50.499 108.176 50.499H103.482C101.135 50.499 99.207 48.6027 99.207 46.2421V41.5674Z" fill="#66B0F0"/>
<path fill-rule="evenodd" clip-rule="evenodd" d="M101.204 49.0863L109.554 38.0264L110.512 38.7436L102.162 49.8035L101.204 49.0863Z" fill="#66B0F0"/>
<path fill-rule="evenodd" clip-rule="evenodd" d="M99.5674 47.1946L106.799 37.6465L107.756 38.3651L100.524 47.9132L99.5674 47.1946Z" fill="#66B0F0"/>
<path fill-rule="evenodd" clip-rule="evenodd" d="M103.94 49.5423L111.172 39.9941L112.129 40.7128L104.897 50.261L103.94 49.5423Z" fill="#66B0F0"/>
<path fill-rule="evenodd" clip-rule="evenodd" d="M106.839 49.5432L111.374 43.5557L112.331 44.2743L107.796 50.2618L106.839 49.5432Z" fill="#66B0F0"/>
<path fill-rule="evenodd" clip-rule="evenodd" d="M99.3476 43.5942L103.862 37.6465L104.818 38.3662L100.304 44.3139L99.3476 43.5942Z" fill="#66B0F0"/>
<path fill-rule="evenodd" clip-rule="evenodd" d="M98.1472 325.803V314.843H99.3458V325.803C99.3458 331.424 94.7626 335.988 89.1178 335.988H64.4269V334.794H89.1178C94.1006 334.794 98.1472 330.765 98.1472 325.803Z" fill="#66B0F0"/>
<path fill-rule="evenodd" clip-rule="evenodd" d="M107.358 415.517V314.963H108.556V415.517H107.358Z" fill="#66B0F0"/>
<path fill-rule="evenodd" clip-rule="evenodd" d="M102.903 416.113C81.2202 416.113 63.8486 430.395 63.8486 447.762H62.65C62.65 429.521 80.7966 414.92 102.903 414.92H112.851C134.957 414.92 153.104 429.521 153.104 447.762H151.905C151.905 430.395 134.533 416.113 112.851 416.113H102.903Z" fill="#66B0F0"/>
<path d="M204.022 316.494H58.9925C51.721 316.494 45.8479 310.626 45.8479 303.405H207.458L204.022 316.494Z" fill="#FFCF2D"/>
<path d="M62.3705 469.085C68.2841 469.085 73.078 464.311 73.078 458.423C73.078 452.534 68.2841 447.761 62.3705 447.761C56.457 447.761 51.6631 452.534 51.6631 458.423C51.6631 464.311 56.457 469.085 62.3705 469.085Z" fill="#FFCF2D"/>
<path d="M56.9155 338.117H78.4103C80.1682 338.117 81.5865 336.705 81.5865 334.954V334.715C81.5865 332.965 80.1682 331.553 78.4103 331.553H56.9155C55.1576 331.553 53.7393 332.965 53.7393 334.715V334.954C53.7393 336.705 55.1576 338.117 56.9155 338.117Z" fill="#FFCF2D"/>
<path fill-rule="evenodd" clip-rule="evenodd" d="M12.0439 211.286C9.38819 203.857 14.9106 196.048 22.8365 196.048H98.4876C105.853 196.048 112.411 200.663 114.893 207.563L114.893 207.564L149.599 304.4H45.4271L12.0439 211.286ZM13.1729 210.886C10.795 204.232 15.7403 197.241 22.8365 197.241H98.4876C105.345 197.241 111.453 201.538 113.765 207.966L147.898 303.206H46.2718L13.1731 210.886C13.1731 210.886 13.173 210.886 13.1729 210.886Z" fill="#FFCF2D"/>
<path fill-rule="evenodd" clip-rule="evenodd" d="M15.2459 199.608H91.8359C98.9616 199.608 105.3 204.064 107.702 210.746L107.702 210.746L141.249 304.4H50.9439V303.206H139.549L106.574 211.148C104.341 204.94 98.454 200.802 91.8359 200.802H15.2459V199.608Z" fill="#FFCF2D"/>
<path d="M152.324 469.085C158.238 469.085 163.032 464.311 163.032 458.423C163.032 452.534 158.238 447.761 152.324 447.761C146.41 447.761 141.617 452.534 141.617 458.423C141.617 464.311 146.41 469.085 152.324 469.085Z" fill="#FFCF2D"/>
</svg>
